<svg width="85" height="36" viewBox="0 0 85 36" fill="none" xmlns="http://www.w3.org/2000/svg">
<path fill-rule="evenodd" clip-rule="evenodd" d="M6.87352 8.4312H11.9617V16.7286C10.2656 17.0854 8.97128 17.2639 7.54301 17.2639C1.96386 17.2639 0 14.052 0 8.83269C0 3.16728 2.72263 0 8.16788 0C8.83738 0 10.1764 0.0446095 11.7832 0.312267V5.6208H10.6227L9.95321 3.56876C9.32834 1.65055 8.56958 0.669143 7.36448 0.669143C5.26672 0.669143 4.19552 3.47954 4.19552 8.74347C4.19552 14.052 4.64185 16.5501 7.36448 16.5501C7.72155 16.5501 8.16788 16.5055 8.56958 16.3717V10.2156L6.91815 9.10034V8.4312H6.87352ZM11.8726 30.736C11.8726 34.0817 9.59629 35.9999 5.53466 35.9999C4.41883 35.9999 2.81204 35.8215 1.29451 35.5984V29.0408H2.45497L2.94594 30.6021C4.06177 34.1709 4.82053 35.3308 6.2488 35.3308C7.72169 35.3308 8.79289 34.0371 8.79289 32.2973C8.79289 30.9144 8.12339 29.933 6.69513 29.1746L4.2403 27.8364C2.3657 26.8549 1.33914 25.2936 1.33914 23.3754C1.33914 20.4758 3.7047 18.736 7.63243 18.736C8.52509 18.736 9.55165 18.8252 11.2031 19.0483V24.3568H10.0426L9.37312 22.3048C8.70362 20.1635 7.98949 19.3605 6.69513 19.3605C5.26686 19.3605 4.3742 20.2973 4.3742 21.6356C4.3742 22.8401 5.0437 23.6877 6.33806 24.446L8.83752 25.8289C10.8907 27.0334 11.8726 28.5947 11.8726 30.736ZM22.7183 34.6171L23.2093 35.3309V35.6877H19.4601L19.2816 34.2602C18.8799 35.3309 17.8533 35.9554 16.5143 35.9554C14.5505 35.9554 13.3454 34.7063 13.3454 32.6989C13.3454 30.7361 14.4612 29.4424 17.8533 28.1041L19.2816 27.5242V25.6952C19.2816 24.0893 18.9691 23.4201 18.0765 23.4201C17.3177 23.4201 16.916 23.8216 16.2019 25.606L15.3985 27.7026H14.2827V23.6878C15.7109 23.2417 17.1838 22.974 18.4335 22.974C21.2008 22.974 22.7183 24.3123 22.7183 26.7212V34.6171ZM24.1464 10.7508C24.1464 14.8995 21.9148 17.2638 19.0582 17.2638C16.2017 17.2638 13.97 14.8995 13.97 10.7508C13.97 6.60212 16.2017 4.23782 19.0582 4.23782C21.9148 4.19321 24.1464 6.55751 24.1464 10.7508ZM19.2817 32.565V28.3271L18.8354 28.5056C17.4072 29.0855 16.8269 30.4238 16.8269 32.342C16.8269 33.7695 17.184 34.6171 17.9874 34.6171C18.7908 34.6171 19.2817 33.8587 19.2817 32.565ZM20.5313 10.751C20.5313 6.02236 20.1296 4.7733 19.0138 4.7733C17.8979 4.7733 17.4962 6.02236 17.4962 10.751C17.4962 15.4796 17.8979 16.7286 19.0138 16.7286C20.1296 16.7286 20.5313 15.435 20.5313 10.751ZM32.8501 32.6543L33.2964 32.8773C32.493 35.1524 31.5111 36 29.5472 36C26.3782 36 24.5929 33.6357 24.5929 29.487C24.5929 25.3383 26.646 22.974 30.0382 22.974C30.9308 22.974 32.1359 23.1078 33.1625 23.5539V27.7026H32.002L31.5557 26.1413C30.9308 24.0446 30.6184 23.5093 29.9935 23.5093C29.0116 23.5093 28.2082 24.803 28.2082 29.6208C28.2082 33.5019 28.7884 34.9294 30.306 34.9294C31.3325 34.9294 32.1806 34.3048 32.8501 32.6543ZM30.1275 16.9517H25.7088V16.5948L26.1998 15.8364V2.18594L25.7088 1.42757V1.0707L29.6365 0.758431V15.8364L30.1275 16.5948V16.9517ZM36.153 17.264C33.475 17.264 31.8235 14.8104 31.8235 10.6171C31.8235 6.46845 33.5196 4.19336 36.1083 4.19336C37.4473 4.19336 38.1614 4.72868 38.4739 5.7547V2.18594L37.9829 1.42757V1.0707L41.9553 0.758431V15.8365L42.4462 16.5948V16.9517H38.9648L38.697 15.0781C38.2953 16.684 37.5812 17.264 36.153 17.264ZM44.7671 34.6171L45.258 35.3308V35.6877H40.8393V35.3308L41.3303 34.6171V25.7844C41.3303 24.7138 41.0179 24.0892 40.2591 24.0892C39.3665 24.0892 38.697 24.8476 38.697 26.3643V34.6171L39.1879 35.3308V35.6877H34.7692V35.3308L35.2602 34.6171V20.922L34.7692 20.1636V19.8067L38.697 19.4944V24.5799C39.1433 23.5093 40.1252 22.9294 41.5535 22.9294C43.562 22.9294 44.7671 24.2231 44.7671 26.6766V34.6171ZM35.4386 10.6619C35.4386 15.0782 35.8403 16.4165 36.9115 16.4165C38.2505 16.4165 38.5183 14.4983 38.5183 10.6173C38.5183 6.87006 38.2505 4.99646 36.9561 4.99646C35.8403 4.99646 35.4386 6.33475 35.4386 10.6619ZM60.0764 15.881L60.5674 16.6394V16.9962H56.1487V16.6394L56.6396 15.881V6.78066C56.6396 5.88847 56.3272 5.35316 55.6577 5.35316C54.8097 5.35316 54.0955 6.11152 54.0955 7.58364V15.881L54.5865 16.6394V16.9962H50.2125V16.6394L50.7034 15.881V6.78066C50.7034 5.88847 50.391 5.35316 49.7215 5.35316C48.8735 5.35316 48.1593 6.11152 48.1593 7.58364V15.881L48.6503 16.6394V16.9962H44.2316V16.6394L44.7226 15.881V5.88847L44.2316 5.30855V4.95167L47.7576 4.55019H48.0701L48.1593 5.93308C48.561 4.86245 49.5876 4.28253 51.0159 4.28253C52.5334 4.28253 53.5153 4.99628 53.917 6.33457C54.2741 5.04089 55.4345 4.28253 56.9074 4.28253C58.8267 4.28253 60.0764 5.57621 60.0764 8.02973V15.881ZM55.5237 32.119C55.5237 34.2602 54.1401 36 50.8372 36C49.9892 36 48.8287 35.9108 47.0434 35.5985V31.0037H48.07L48.3824 31.9851C49.1858 34.4833 49.9446 35.4201 51.1497 35.4201C52.2655 35.4201 53.0242 34.6171 53.0242 33.368C53.0242 32.342 52.4886 31.6283 51.2836 30.9591L49.1858 29.8439C47.8468 29.1301 47.088 27.9703 47.088 26.5428C47.088 24.3123 48.8287 22.974 51.7299 22.974C52.5779 22.974 53.6491 23.1078 54.8096 23.3309V26.8997H53.783L53.2474 25.606C52.6672 24.0446 52.0869 23.5093 51.1497 23.5093C50.1231 23.5093 49.5429 24.0893 49.5429 25.0707C49.5429 25.9182 50.0338 26.4536 51.2389 27.1673L53.3367 28.3272C54.7649 29.1747 55.5237 30.3346 55.5237 32.119ZM71.3683 15.881L71.8593 16.6394V16.9962H68.1101L67.9316 15.5687C67.5299 16.6394 66.5033 17.2639 65.1643 17.2639C63.2004 17.2639 61.9953 16.0148 61.9953 14.0074C61.9953 12.0446 63.1112 10.7509 66.5033 9.41261L67.9316 8.83269V7.0037C67.9316 5.39775 67.6191 4.72861 66.7265 4.72861C65.9677 4.72861 65.566 5.1301 64.8519 6.91448L64.0485 8.92191H62.9326V4.90705C64.3609 4.46095 65.8338 4.1933 67.0835 4.1933C69.8508 4.1933 71.3683 5.53158 71.3683 7.9405V15.881ZM67.9317 13.7844V9.54655L67.4854 9.72498C66.0571 10.3049 65.4769 11.6432 65.4769 13.5614C65.4769 14.9889 65.834 15.8365 66.6374 15.8365C67.4408 15.8811 67.9317 15.1227 67.9317 13.7844ZM83.9996 16.5948V16.9516H79.5809V16.5948L80.0719 15.8364V7.04832C80.0719 5.97769 79.7595 5.35316 79.0007 5.35316C78.108 5.35316 77.4385 6.11152 77.4385 7.62824V15.881L77.9295 16.6394V16.9962H73.5108V16.6394L74.0018 15.881V5.88847L73.5108 5.30855V4.95167L77.0368 4.55019H77.3493L77.4385 5.93308C77.8402 4.86245 78.8668 4.28253 80.2951 4.28253C82.3036 4.28253 83.5087 5.57621 83.5087 8.02973V15.9256L83.9996 16.5948Z" fill="#090F14"/>
</svg>
